<svg xmlns="http://www.w3.org/2000/svg" viewBox="0 0 432 680.55"><g id="Layer_2" data-name="Layer 2"><g id="Layer_1-2" data-name="Layer 1"><polygon points="220 0 158 110 206 112 204 166 248 170 248 114 292 116 220 0" fill="#cf0380"></polygon><polygon points="0 204 10 666 208 656 432 634 418.31 198.1 0 204" fill="#fff"></polygon><polyline points="26 237.48 31.16 385.83 198.86 381.96 191.12 222" fill="#361284"></polyline><path d="M57.05,253.3s78.12-9,106.9-1.49l6,36.63-16.82,1.12,4.11-26.91L118,261.9l3.74,76.25,25,3.74,2.25,8.22-63.17,1.12V344.5l25-4.48-3-77.37-38.87,3,.75,20.55-12,2.25s-4.86-28.41-3-34.39" fill="#4fbaad"></path><polyline points="232.08 243.93 367.53 240.06 367.53 258.12 234.66 268.44" fill="#4fbaad"></polyline><polyline points="234.66 285.21 364.95 282.63 364.95 289.08 248.85 296.82" fill="#4fbaad"></polyline><polyline points="241.11 312.3 294 308.43 291.42 322.62 246.27 322.62" fill="#4fbaad"></polyline><polyline points="246.27 367.77 385.59 358.74 385.59 375.51 244.98 381.96" fill="#4fbaad"></polyline><polyline points="43.74 419.37 384.3 398.73 385.59 420.66 39.87 442.59" fill="#4fbaad"></polyline><polyline points="50.19 477.42 379.14 445.17 386.88 470.97 47.61 496.77" fill="#4fbaad"></polyline><polyline points="47.61 518.7 220.47 505.8 220.47 519.99 51.48 536.76" fill="#4fbaad"></polyline><polyline points="57.93 558.69 388.17 545.79 389.46 567.72 50.19 583.2" fill="#4fbaad"></polyline><polygon points="198.06 532.25 188 669.94 416.32 680.55 420.9 532 198.06 532.25" fill="#361284"></polygon><path d="M306.68,647.16A43.86,43.86,0,1,0,267,599.47a43.86,43.86,0,0,0,39.66,47.69" fill="#cf0380"></path><path d="M300.4,616.79a23.22,23.22,0,1,0-21-25.25,23.22,23.22,0,0,0,21,25.25" fill="#e05dad"></path><path d="M295.61,594.33a8.12,8.12,0,1,0-7.34-8.83,8.12,8.12,0,0,0,7.34,8.83" fill="#fff"></path><polyline points="397.17 550.55 397.73 572.62 362.93 570.72 365.75 554.14" fill="#4fbaad"></polyline></g></g></svg>