<svg xmlns="http://www.w3.org/2000/svg" viewBox="0 0 360 466"><g id="Layer_2" data-name="Layer 2"><g id="Layer_1-2" data-name="Layer 1"><path d="M9.44,388.49,0,67.54,259,36s3.67,336.41,11,363" fill="#d9d9d9"></path><path d="M43.44,152a18.7,18.7,0,1,0-18.69-18.7A18.7,18.7,0,0,0,43.44,152" fill="#c7e9e5"></path><path d="M22.55,124.66l4.73-4.26,14.2,12.79S56.63,99.57,77,101.47c0,0-13.73,8.52-26.51,38.82l-10.42,4.26s-14.2-9.47-17.51-19.89" fill="#4fbaad"></path><polygon points="70.94 120.09 233.71 122.84 228.21 128.34 83.58 129.99 82.48 133.84 222.16 136.03 97.88 139.33 97.88 142.08 142.97 142.63 141.87 147.03 71.49 144.28 70.94 120.09" fill="#b2aec8"></polygon><path d="M43.44,200.37a18.7,18.7,0,1,0-18.69-18.69,18.69,18.69,0,0,0,18.69,18.69" fill="#c7e9e5"></path><path d="M22.55,173.06l4.73-4.26,14.2,12.78S56.63,148,77,149.86c0,0-13.73,8.52-26.51,38.82l-10.42,4.26s-14.2-9.47-17.51-19.88" fill="#4fbaad"></path><polygon points="70.94 168.48 169.37 173.98 163.87 179.48 83.58 178.38 82.48 182.23 157.27 184.43 97.88 187.72 97.88 190.47 228.21 188.28 227.11 192.68 71.49 192.68 70.94 168.48" fill="#b2aec8"></polygon><polygon points="70.94 219.07 145.72 221.27 228.21 227.32 83.58 228.97 82.48 232.82 222.16 235.02 97.88 238.31 97.88 241.06 243.6 237.77 141.87 246.01 71.49 243.26 70.94 219.07" fill="#b2aec8"></polygon><path d="M43.44,251a18.7,18.7,0,1,0-18.69-18.69A18.69,18.69,0,0,0,43.44,251" fill="#efaed6"></path><path d="M62.22,212.93S22.9,233.32,24.84,260.5h8.74s-11.65-20.39,31.55-47.09" fill="#cf0380"></path><polyline points="29.7 209.05 72.42 270.21 67.08 268.75 26.79 218.27 21.45 199.82" fill="#cf0380"></polyline><path d="M20.44,367.49,11,46.54,270,15s3.67,336.41,11,363" fill="#f2f2f2"></path><path d="M54.44,131a18.7,18.7,0,1,0-18.69-18.7A18.7,18.7,0,0,0,54.44,131" fill="#b2aec8"></path><polygon points="81.94 99.09 244.71 101.84 239.21 107.34 94.58 108.99 93.48 112.83 233.16 115.03 108.88 118.33 108.88 121.08 153.97 121.63 152.87 126.03 82.49 123.28 81.94 99.09" fill="#b2aec8"></polygon><path d="M54.44,179.37a18.7,18.7,0,1,0-18.69-18.69,18.69,18.69,0,0,0,18.69,18.69" fill="#b2aec8"></path><polygon points="81.94 147.48 180.37 152.98 174.87 158.48 94.58 157.38 93.48 161.23 168.27 163.43 108.88 166.72 108.88 169.47 239.21 167.28 238.11 171.68 82.49 171.68 81.94 147.48" fill="#b2aec8"></polygon><polygon points="81.94 198.07 156.72 200.27 239.21 206.32 94.58 207.97 93.48 211.82 233.16 214.02 108.88 217.31 108.88 220.06 254.6 216.77 152.87 225.01 82.49 222.26 81.94 198.07" fill="#b2aec8"></polygon><path d="M54.44,230a18.7,18.7,0,1,0-18.69-18.69A18.69,18.69,0,0,0,54.44,230" fill="#b2aec8"></path><path d="M51.44,352.49,42,31.54,301,0s3.67,336.41,11,363" fill="#fff"></path><path d="M85.7,108.39A18.7,18.7,0,1,0,67,89.7a18.69,18.69,0,0,0,18.7,18.69" fill="#b2aec8"></path><polygon points="113.19 76.5 275.96 79.25 270.46 84.75 125.84 86.4 124.74 90.25 264.41 92.45 140.14 95.75 140.14 98.5 185.23 99.05 184.13 103.44 113.74 100.69 113.19 76.5" fill="#b2aec8"></polygon><path d="M89,259.8a18.7,18.7,0,1,0-18.7-18.69A18.69,18.69,0,0,0,89,259.8" fill="#b2aec8"></path><polygon points="116.45 227.91 279.22 230.66 273.72 236.16 129.09 237.81 127.99 241.66 267.67 243.86 143.39 247.16 143.39 249.91 188.48 250.46 187.38 254.85 117 252.1 116.45 227.91" fill="#b2aec8"></polygon><path d="M85.7,156.78A18.7,18.7,0,1,0,67,138.09a18.69,18.69,0,0,0,18.7,18.69" fill="#b2aec8"></path><polygon points="113.19 124.89 211.62 130.39 206.13 135.89 125.84 134.79 124.74 138.64 199.53 140.84 140.14 144.14 140.14 146.89 270.46 144.69 269.36 149.09 113.74 149.09 113.19 124.89" fill="#b2aec8"></polygon><path d="M92,316.41a18.7,18.7,0,1,0-18.7-18.7A18.7,18.7,0,0,0,92,316.41" fill="#b2aec8"></path><polygon points="119.45 284.52 217.88 290.02 212.38 295.51 132.09 294.42 130.99 298.26 205.78 300.46 146.39 303.76 146.39 306.51 276.72 304.31 275.62 308.71 120 308.71 119.45 284.52" fill="#b2aec8"></polygon><polygon points="113.19 175.48 187.98 177.68 270.46 183.73 125.84 185.38 124.74 189.23 264.41 191.43 140.14 194.73 140.14 197.48 285.86 194.18 184.13 202.43 113.74 199.68 113.19 175.48" fill="#b2aec8"></polygon><path d="M85.7,207.37A18.7,18.7,0,1,0,67,188.68a18.69,18.69,0,0,0,18.7,18.69" fill="#b2aec8"></path><path d="M262.55,439A93.55,93.55,0,1,0,169,345.45,93.55,93.55,0,0,0,262.55,439" fill="#cf0380"></path><path d="M252.3,292.55s-2.29-19.47,8-18.33,18.33,4.58,18.33,28.64" fill="#4fbaad"></path><path d="M253.29,373.88s-16,24.06-2.29,30.93,29.78,11.46,28.64-34.37" fill="#fff"></path><path d="M259.18,289.11s-16,0-22.91,11.46,0,75.6-28.64,74.46c0,0,12.6,8,40.09,9.16s61.86-1.14,61.86-1.14l9.16-3.44a19.4,19.4,0,0,1-12.6-5.73c-5.72-5.73-9.16-69.88-14.89-75.6s-21.76-8-32.07-9.17" fill="#29017c"></path><path d="M324.5,466A35.5,35.5,0,1,0,289,430.5,35.5,35.5,0,0,0,324.5,466" fill="#4fbaad"></path><path d="M319.79,434.74q2.88-2.14,4.2-2.15a9.2,9.2,0,0,1,1.07.2c1.82.94,2.74,2.08,2.74,3.42v.49a1.68,1.68,0,0,1-.2.78,3.94,3.94,0,0,1-3.81,2.83h-.39a3.83,3.83,0,0,1-.88-.2,4.63,4.63,0,0,1-2.93-4.29c0-.08.07-.44.2-1.08m3.51-21.38q-7.41,4.06-11.32,14.94a26.73,26.73,0,0,0-1,5.66v1.37a17.12,17.12,0,0,0,.68,4.2c1.37,3.77,3.45,6.48,6.25,8.1A13.85,13.85,0,0,0,323,449h.59a18,18,0,0,0,6-1.66c1.56-.6,3.39-2.43,5.47-5.47a14.37,14.37,0,0,0,1.37-5.17V436c0-.39,0-.58-.1-.58q0-3-2.83-6.84-1.74-2.49-6.15-4c-1.76-.22-2.64-.41-2.64-.59v-.29a13.05,13.05,0,0,1,3.32-2.64q4.59-1.87,4.59-3.12v-.59A3.2,3.2,0,0,0,332,416c-.74-1.79-1.26-2.73-1.57-2.83-.84-1.56-1.53-2.34-2.05-2.34h-.29c-.57,0-2.17.84-4.79,2.54" fill="#29017c"></path></g></g></svg>